<?xml version="1.0" standalone="no"?>
<!DOCTYPE svg PUBLIC "-//W3C//DTD SVG 1.1//EN" "http://www.w3.org/Graphics/SVG/1.1/DTD/svg11.dtd" >
<svg>
<metadata>
Created by FontForge 20090622 at Mon Jan 25 09:32:43 2016
 By deploy user
COPYRIGHT ESSELTE LETRASET LTD., 1994 
</metadata>
<defs>
<font id="AvenidaLetPlain" horiz-adv-x="819" >
  <font-face 
    font-family="Avenida LET"
    font-weight="5"
    font-stretch="normal"
    units-per-em="2048"
    panose-1="0 0 0 0 0 0 0 0 0 0"
    ascent="1638"
    descent="-410"
    x-height="1092"
    cap-height="1365"
    bbox="-137 -401 2116 1723"
    underline-thickness="129"
    underline-position="-209"
    unicode-range="U+0020-U+F002"
  />
<missing-glyph horiz-adv-x="1024" 
d="M82 1365h860v-1365h-860v1365zM123 1324v-1283h778v1283h-778z" />
    <glyph glyph-name=".notdef" horiz-adv-x="1024" 
d="M82 1365h860v-1365h-860v1365zM123 1324v-1283h778v1283h-778z" />
    <glyph glyph-name="multiply" unicode="&#xd7;" horiz-adv-x="0" 
 />
    <glyph glyph-name="multiply" unicode="&#xfd;" horiz-adv-x="0" 
 />
    <glyph glyph-name="HT" horiz-adv-x="491" 
 />
    <glyph glyph-name="nonmarkingreturn" horiz-adv-x="491" 
 />
    <glyph glyph-name="space" unicode=" " horiz-adv-x="491" 
 />
    <glyph glyph-name="exclam" unicode="!" horiz-adv-x="341" 
d="M171 154q35 0 60 -25t25 -61q0 -37 -25 -61t-60 -24t-60 25q-26 26 -26 60t26 60t60 26zM240 1365v-1092h-137v1092h137z" />
    <glyph glyph-name="quotedbl" unicode="&#x22;" horiz-adv-x="505" 
d="M450 1288q0 -12 -5 -29l-80 -261l-80 261q-5 17 -5 29q0 35 24 60t61 25q23 0 43 -11q19 -12 31 -31q11 -20 11 -43zM225 1288q0 -12 -5 -29l-80 -261l-80 261q-5 17 -5 29q0 35 24 60t61 25q23 0 43 -11q19 -12 31 -31q11 -20 11 -43z" />
    <glyph glyph-name="numbersign" unicode="#" horiz-adv-x="491" 
d="M246 1254q-32 0 -55 -23q-22 -22 -22 -54q0 -30 23 -53q23 -24 54 -24t54 23t23 54q0 33 -22 55t-55 22zM246 1382q57 0 103 -27q45 -28 74 -75q27 -46 27 -103q0 -55 -27 -102q-30 -48 -74 -74q-46 -28 -103 -28t-103 28q-47 27 -74 74q-28 46 -28 102q0 57 28 103
q27 46 74 75q47 27 103 27zM314 887v-887h-137v887h137z" />
    <glyph glyph-name="dollar" unicode="$" horiz-adv-x="638" 
d="M280 898v351q-39 -10 -66 -43q-26 -34 -26 -74q0 -41 30 -101zM414 377l-52 121v-373q41 12 66 46q24 33 24 73q0 39 -13 75q-10 29 -25 58zM362 1484v-106q59 -11 106 -47q49 -37 76 -90q27 -54 27 -117v-15h-129v15q0 40 -22 74q-22 33 -58 46v-484l175 -337
q53 -101 53 -176q0 -68 -31 -124q-32 -58 -83 -93q-52 -36 -114 -45v-122h-82v122q-99 15 -165 92q-67 76 -67 178h136q0 -45 27 -80q27 -37 69 -50v508l-171 333q-50 102 -50 166q0 99 64 167q65 68 157 81v104h82z" />
    <glyph glyph-name="percent" unicode="%" horiz-adv-x="665" 
d="M444 265q-43 0 -73 -31t-30 -72q0 -40 31 -71t72 -31q42 0 72 30t30 72q0 20 -8 41q-7 20 -21 33q-14 14 -32 21q-21 8 -41 8zM444 333q45 0 86 -23q39 -22 62 -61q22 -38 22 -87q0 -71 -49 -120q-50 -50 -121 -50t-121 50t-50 120q0 71 50 121t121 50zM222 1305
q-43 0 -73 -30t-30 -72q0 -41 31 -72t72 -31q42 0 72 30t30 73q0 20 -8 41q-7 18 -21 32t-32 21q-21 8 -41 8zM222 1373q46 0 86 -22q39 -23 62 -62q22 -40 22 -86q0 -72 -49 -121q-50 -50 -121 -50t-121 50t-50 121t50 121q49 49 121 49zM614 1365l-486 -1365h-77l487 1365
h76z" />
    <glyph glyph-name="ampersand" unicode="&#x26;" horiz-adv-x="667" 
d="M260 739q-37 30 -58 56t-44 70q-39 77 -39 159q0 97 49 179q48 83 132 131q83 48 178 48q35 0 68 -6v-141q-35 11 -68 11q-60 0 -111 -30q-52 -30 -81 -81q-30 -51 -30 -111t30 -111q29 -52 81 -81q51 -30 111 -30h34v-137h-34q-75 0 -137 -36q-63 -37 -99 -99
q-37 -62 -37 -138q0 -56 22 -104q21 -51 59 -89t88 -59t104 -21v273h128v-392q-63 -17 -128 -17q-80 0 -156 32t-132 88q-58 55 -90 133t-32 156q0 108 51 199t141 148z" />
    <glyph glyph-name="quotesingle" unicode="'" horiz-adv-x="280" 
d="M225 1288q0 -12 -5 -29l-80 -261l-80 261q-5 17 -5 29q0 35 24 60t61 25q23 0 43 -11q19 -12 31 -31q11 -20 11 -43z" />
    <glyph glyph-name="parenleft" unicode="(" horiz-adv-x="573" 
d="M538 0l-108 -70q-69 82 -122 168q-52 83 -92 187q-20 55 -30.5 91.5t-25.5 106.5q-20 103 -20 198q0 127 34 264q33 137 93 253q35 66 68 114q44 61 95 123l109 -70q-88 -106 -147 -215q-59 -110 -87 -224q-29 -118 -29 -244q0 -127 28 -239q29 -117 86 -224
q59 -111 148 -219z" />
    <glyph glyph-name="parenright" unicode=")" horiz-adv-x="573" 
d="M143 -70l-108 70q91 111 149 219q57 107 86 224q27 114 27 239q0 98 -15 185q-18 93 -47 170q-30 78 -82 165q-47 79 -119 163l109 70q109 -131 163 -237q127 -245 127 -517q0 -133 -34 -265q-35 -137 -101 -261q-69 -130 -155 -225z" />
    <glyph glyph-name="asterisk" unicode="*" horiz-adv-x="539" 
d="M163 1339l76 -76v108q14 2 31 2q16 0 30 -2v-108l76 76q24 -17 44 -43l-76 -76h107q3 -16 3 -31q0 -16 -3 -30h-107l76 -76q-17 -24 -44 -44l-76 76v-107q-15 -3 -30 -3q-16 0 -31 3v107l-76 -76q-26 18 -44 44l76 76h-107q-3 15 -3 30q0 16 3 31h107l-76 76q25 32 44 43
z" />
    <glyph glyph-name="plus" unicode="+" horiz-adv-x="725" 
d="M239 1212v-803q127 46 204 157q77 110 77 245q0 138 -78 247q-81 111 -203 154zM503 0l-179 297q-31 -16 -85 -31v-266h-137v1373q68 0 137 -18q119 -32 215 -111q95 -80 149 -192q54 -114 54 -241q0 -87 -26 -170q-27 -82 -75 -151q-51 -71 -116 -123l217 -367h-154z
" />
    <glyph glyph-name="comma" unicode="," horiz-adv-x="307" 
d="M154 -154v137q-35 0 -60 25q-26 26 -26 60t26 60t60 26q43 0 68 -31q26 -32 26 -83q-3 -106 -94 -194z" />
    <glyph glyph-name="hyphen" unicode="-" horiz-adv-x="477" 
d="M408 610v-128h-340v128h340z" />
    <glyph glyph-name="period" unicode="." horiz-adv-x="307" 
d="M154 154q35 0 60 -25t25 -61q0 -37 -25 -61t-60 -24t-60 25q-26 26 -26 60t26 60t60 26z" />
    <glyph glyph-name="slash" unicode="/" horiz-adv-x="762" 
d="M150 -68h-136l594 1501h141z" />
    <glyph glyph-name="zero" unicode="0" horiz-adv-x="1538" 
d="M1333 683q0 153 -76 283q-76 129 -206 204t-283 75q-149 0 -280 -75q-132 -77 -206 -206q-76 -130 -76 -281q0 -152 76 -282q75 -130 205 -205q130 -76 282 -76q153 0 283 76q129 76 206 205q75 129 75 282zM1470 683q0 -144 -53 -271q-54 -127 -150 -223t-227 -152
q-129 -55 -271 -55q-143 0 -269 55q-129 54 -226 151t-151 226q-55 126 -55 269q0 187 94 350q95 162 257 256q161 94 349 94t351 -94q163 -95 257 -255q94 -161 94 -351z" />
    <glyph glyph-name="one" unicode="1" horiz-adv-x="328" 
d="M232 1365v-1365h-136v1365h136z" />
    <glyph glyph-name="two" unicode="2" horiz-adv-x="614" 
d="M27 0l386 1023q17 49 17 87q0 56 -35 97q-36 39 -95 39q-56 0 -96 -40t-40 -97h-137q0 73 37 137q37 62 99 100q62 36 137 36q78 0 140 -38q60 -36 95 -101q33 -63 33 -132q0 -62 -28 -137l-317 -846h350v-128h-546z" />
    <glyph glyph-name="three" unicode="3" horiz-adv-x="655" 
d="M519 1237l-153 -261q65 -47 117 -116q51 -71 77 -151q27 -82 27 -171q0 -111 -41 -210q-42 -99 -118 -175t-175 -118q-99 -43 -212 -43v136q111 0 205 55t149 149t55 206q0 100 -39 179q-40 78 -102 131q-61 50 -130 75l178 314h-316v128h478v-128z" />
    <glyph glyph-name="four" unicode="4" horiz-adv-x="723" 
d="M186 401h264v640zM587 273v-273h-137v273h-409v128l409 964h137v-964h68v-128h-68z" />
    <glyph glyph-name="five" unicode="5" horiz-adv-x="669" 
d="M242 1237l-22 -179q84 -27 152 -74q69 -48 121 -119q52 -70 80 -153q28 -84 28 -174q0 -111 -41 -210q-42 -99 -118 -175t-175 -118q-99 -43 -212 -43v136q111 0 205 55t149 149t55 206q0 99 -49 193t-143 156q-94 60 -214 60l54 418h420v-128h-290z" />
    <glyph glyph-name="six" unicode="6" horiz-adv-x="947" 
d="M493 116q110 4 187 86q76 79 76 196q-3 74 -41 135q-38 60 -102 94q-65 35 -139 35q-113 -5 -187 -82t-74 -201q3 -74 40 -133q37 -61 101 -95q64 -35 139 -35zM675 1388l63 -120q-107 -54 -204 -139q-92 -80 -164 -186q-70 -103 -108 -216q113 75 232 75q81 0 150 -30
q69 -31 126 -87q57 -58 89 -130q32 -74 33 -149q0 -117 -52 -211q-54 -96 -142 -151q-92 -57 -200 -61h-20q-174 0 -283 109q-120 120 -126 314v19q-1 5 -1 15q0 141 42 280q42 137 120 262q77 123 193 230q115 106 252 176z" />
    <glyph glyph-name="seven" unicode="7" horiz-adv-x="614" 
d="M587 1365l-341 -1365h-137l307 1237h-375v128h546z" />
    <glyph glyph-name="eight" unicode="8" horiz-adv-x="982" 
d="M491 1246q-89 0 -151 -63q-63 -64 -63 -152q0 -99 68 -156q67 -58 146 -58q50 0 100 25q51 25 82 73q32 49 32 116q0 59 -29 109q-28 49 -79 78q-49 28 -106 28zM491 692q-76 0 -141 -36q-66 -36 -105 -101q-40 -65 -40 -149q0 -77 39 -143t105 -105q65 -39 142 -39
t143 39q65 39 104 105t39 143q0 75 -38 142q-39 65 -105 105q-66 39 -143 39zM717 762q60 -37 104 -91q44 -55 69 -123q24 -69 24 -142q0 -84 -32 -163q-33 -79 -91 -136q-59 -57 -136 -90q-78 -34 -164 -34q-84 0 -161 33q-77 31 -137 91t-92 136q-33 77 -33 163
q0 72 24 139q24 68 69 125q44 55 104 93q-60 51 -92 118q-33 69 -33 150q0 95 47 177q47 81 128 127q80 47 176 47q95 0 177 -47q80 -47 127 -127q47 -82 47 -177q0 -78 -33 -149q-33 -70 -92 -120z" />
    <glyph glyph-name="nine" unicode="9" horiz-adv-x="952" 
d="M445 1239q-70 -5 -128 -42q-59 -39 -92 -98q-34 -59 -34 -131q0 -6 1 -9v-11q3 -38 12.5 -66.5t31.5 -62.5q39 -59 104 -92t143 -33q74 5 129 41q58 38 89 97q32 59 32 131q0 18 -1 23q-6 70 -42 128q-37 59 -96 93q-58 33 -129 33h-11q-3 -1 -9 -1zM301 -17l-68 118
q113 55 207 140q92 83 159 189q66 107 99 222q-121 -88 -250 -88q-101 0 -189 53t-141 141q-55 88 -62 187q-1 7 -1 29q0 78 29 153q29 72 81 129q52 55 122 90q69 33 149 36h21q86 0 164 -29q76 -30 134 -88q60 -58 95 -147q34 -86 34 -203q0 -141 -39 -278
q-18 -64 -47.5 -130t-67.5 -126q-79 -122 -185 -221q-108 -102 -244 -177z" />
    <glyph glyph-name="colon" unicode=":" horiz-adv-x="307" 
d="M154 683q35 0 60 -25t25 -61q0 -37 -25 -61t-60 -24t-60 25q-26 26 -26 60t26 60t60 26zM154 154q35 0 60 -25t25 -61q0 -37 -25 -61t-60 -24t-60 25q-26 26 -26 60t26 60t60 26z" />
    <glyph glyph-name="semicolon" unicode=";" horiz-adv-x="307" 
d="M154 -154v137q-35 0 -60 25q-26 26 -26 60t26 60t60 26q43 0 68 -31q26 -32 26 -83q-3 -106 -94 -194zM154 683q35 0 60 -25t25 -61q0 -37 -25 -61t-60 -24t-60 25q-26 26 -26 60t26 60t60 26z" />
    <glyph glyph-name="less" unicode="&#x3c;" horiz-adv-x="491" 
d="M246 981q-32 0 -55 -23q-22 -22 -22 -54q0 -30 23 -53q23 -24 54 -24t54 23t23 54q0 33 -22 55t-55 22zM246 1109q57 0 103 -27q45 -28 74 -75q27 -46 27 -103q0 -55 -27 -102q-30 -48 -74 -74q-46 -28 -103 -28t-103 28q-47 27 -74 74q-28 46 -28 102q0 57 28 103
q27 46 74 75q47 27 103 27zM314 614v-614h-137v614h137z" />
    <glyph glyph-name="equal" unicode="=" horiz-adv-x="290" 
d="M427 1365l-487 -1365h-77l487 1365h77z" />
    <glyph glyph-name="greater" unicode="&#x3e;" horiz-adv-x="710" 
d="M445 333l197 -333h-154l-170 282q-45 -14 -86 -19v-263h-136v1092h102q119 0 220 -46q100 -46 163 -139q61 -92 61 -224q0 -73 -25 -139q-26 -70 -68 -121q-43 -52 -104 -90zM232 964v-563q115 3 194 85t79 197q0 75 -36 139q-38 64 -99 101q-64 38 -138 41z" />
    <glyph glyph-name="question" unicode="?" horiz-adv-x="665" 
d="M171 154q35 0 60 -25t25 -61q0 -37 -25 -61t-60 -24t-60 25q-26 26 -26 60t26 60t60 26zM239 438v-165h-137v281q93 0 172 46q78 47 124 125q46 77 46 171q0 70 -26 133q-24 59 -73 109q-50 49 -109 73q-63 26 -134 26v136q98 0 185 -36q87 -38 154 -103q65 -65 103 -153
q36 -87 36 -185q0 -106 -43 -199q-43 -94 -122 -162q-82 -69 -176 -97z" />
    <glyph glyph-name="at" unicode="@" horiz-adv-x="624" 
d="M564 1124v-15h-128v15q0 37 -17 66q-15 27 -46 46q-31 17 -66 17q-53 0 -90 -35q-36 -34 -36 -86q0 -35 33 -101l317 -608q53 -104 53 -176q0 -78 -37 -137q-36 -58 -100 -94q-62 -34 -133 -34q-54 0 -104 21q-51 22 -88 60q-38 37 -60 88q-21 50 -21 104h136
q0 -56 40 -96t97 -40t94 37q37 36 37 88q0 34 -14 74q-14 36 -26 57l-302 591q-51 98 -51 166q0 109 76 179q77 71 179 71q70 0 129 -34q59 -35 94 -94q34 -59 34 -130z" />
    <glyph glyph-name="A" unicode="A" horiz-adv-x="764" 
d="M246 401h273v702q0 70 -35 111q-36 41 -96 41q-64 0 -103 -42t-39 -111v-701zM655 273v-273h-136v273h-273v-273h-137v273h-68v128h68v636q0 54 3 90q1 33 8 61q6 27 19 51q23 44 59 76q37 32 83 50q48 17 100 17q145 0 223 -109q30 -41 41 -90q10 -44 10 -137v-645h68
v-128h-68z" />
    <glyph glyph-name="B" unicode="B" horiz-adv-x="725" 
d="M382 865q-75 -41 -143 -46v-669q61 22 111.5 60t91.5 94q78 110 78 247q0 83 -35 167q-36 82 -103 147zM102 1365h111q92 0 159 -36q66 -35 104 -99q36 -64 36 -138q0 -66 -32 -128q82 -76 130 -182q47 -108 47 -228q0 -127 -54 -240q-53 -112 -149 -193
q-96 -79 -215 -111q-69 -18 -137 -18v1373zM239 1237v-290q61 0 103 42t42 103t-42 103t-103 42z" />
    <glyph glyph-name="C" unicode="C" horiz-adv-x="672" 
d="M631 1373v-139q-42 -17 -51 -20q-11 -4 -46 -19q-8 -3 -39 -19q-67 -38 -120.5 -90.5t-90.5 -115.5q-78 -130 -78 -287q0 -158 79 -288q80 -131 210 -206q100 -45 136 -56v-141v0q-69 14 -136 43q-121 51 -221 151q-99 99 -152 226q-54 128 -54 271q0 142 55 271
q54 130 151 227t221 149q58 25 136 43v0z" />
    <glyph glyph-name="D" unicode="D" horiz-adv-x="734" 
d="M102 1373v0q89 -22 137 -43q191 -81 309 -256q117 -175 117 -391q0 -105 -32 -207q-31 -100 -86 -184q-56 -83 -134 -148q-78 -66 -174 -109q-71 -30 -137 -43v0v1381zM239 1176v-987q132 75 210 206t78 288q0 155 -78 287q-78 133 -210 206z" />
    <glyph glyph-name="E" unicode="E" horiz-adv-x="614" 
d="M519 128v-128h-410v964h-68v128h68v273h410v-128h-273v-145h341v-128h-341v-836h273z" />
    <glyph glyph-name="F" unicode="F" horiz-adv-x="614" 
d="M246 964v-964h-137v964h-68v128h68v273h410v-128h-273v-145h341v-128h-341z" />
    <glyph glyph-name="G" unicode="G" horiz-adv-x="700" 
d="M501 185v225h130v-418v0q-69 14 -136 43q-121 51 -221 151q-99 99 -152 226q-54 128 -54 271q0 142 55 271q54 130 151 227t221 149q58 25 136 43v0v-139q-42 -17 -51 -20q-11 -4 -46 -19q-8 -3 -39 -19q-67 -38 -120.5 -90.5t-90.5 -115.5q-78 -130 -78 -287
q0 -107 37 -200q36 -96 102 -171q64 -74 156 -127z" />
    <glyph glyph-name="H" unicode="H" horiz-adv-x="758" 
d="M648 964v-964h-136v964h-266v-964h-137v964h-68v128h68v273h137v-273h266v273h136v-273h69v-128h-69z" />
    <glyph glyph-name="I" unicode="I" horiz-adv-x="341" 
d="M239 1365v-1365h-137v1365h137z" />
    <glyph glyph-name="J" unicode="J" horiz-adv-x="526" 
d="M20 -8v136q123 0 199 88q74 86 74 274v875h137v-845q0 -163 -28 -251q-28 -90 -88 -153q-115 -124 -294 -124z" />
    <glyph glyph-name="K" unicode="K" horiz-adv-x="704" 
d="M239 0h-137v1365h137v-290l239 290h170l-233 -277l272 -1088h-141l-235 968l-72 -86v-882z" />
    <glyph glyph-name="L" unicode="L" horiz-adv-x="532" 
d="M512 128v-128h-410v1365h138v-1237h272z" />
    <glyph glyph-name="M" unicode="M" horiz-adv-x="938" 
d="M836 1365v-1365h-136v1152l-231 -299l-230 299v-1152h-137v1365h137l230 -290l231 290h136z" />
    <glyph glyph-name="N" unicode="N" horiz-adv-x="751" 
d="M648 1365v-1365h-136v887l-273 290v-1177h-137v1365h137l273 -290v290h136z" />
    <glyph glyph-name="O" unicode="O" horiz-adv-x="1536" 
d="M768 1246q-153 0 -282 -75q-129 -77 -205 -206q-76 -130 -76 -282t76 -282q77 -132 205 -206q128 -76 282 -76t282 76q128 74 205 206q76 130 76 282t-76 282q-76 129 -205 206q-129 75 -282 75zM768 1382q188 0 349 -94q162 -94 256 -256q94 -161 94 -349
q0 -190 -94 -350q-94 -162 -256 -256q-161 -94 -349 -94q-138 0 -267 53q-126 52 -227 153t-153 227q-53 129 -53 267q0 188 94 349q94 162 256 256q160 94 350 94z" />
    <glyph glyph-name="P" unicode="P" horiz-adv-x="725" 
d="M239 1212v-803q125 46 204 157q77 110 77 245q0 138 -78 247q-81 111 -203 154zM102 0v1373q68 0 137 -18q119 -32 215 -111q95 -80 149 -192q54 -114 54 -241q0 -194 -117 -344q-119 -152 -301 -201v-266h-137z" />
    <glyph glyph-name="Q" unicode="Q" horiz-adv-x="1536" 
d="M1077 396l91 -109q77 77 120 180q43 101 43 216q0 152 -76 282q-76 129 -205 206q-129 75 -282 75t-282 -75q-129 -77 -205 -206q-76 -130 -76 -282t76 -282q77 -132 205 -206q128 -76 282 -76q160 0 301 87l-90 108zM1256 182l91 -108l-98 -82l-92 109
q-173 -118 -389 -118q-138 0 -267 53q-126 52 -227 153t-153 227q-53 129 -53 267q0 188 94 349q94 162 256 256q160 94 350 94q188 0 349 -94q162 -94 256 -256q94 -161 94 -349q0 -96 -25 -186q-25 -91 -73 -170q-49 -81 -113 -145z" />
    <glyph glyph-name="R" unicode="R" horiz-adv-x="725" 
d="M239 1212v-803q127 46 204 157q77 110 77 245q0 138 -78 247q-81 111 -203 154zM374 322l283 -322h-179l-239 287v-287h-137v1373q68 0 137 -18q119 -32 215 -111q95 -80 149 -192q54 -114 54 -241q0 -102 -35 -196q-34 -93 -98 -167q-63 -75 -150 -126z" />
    <glyph glyph-name="S" unicode="S" horiz-adv-x="572" 
d="M223 681q-155 150 -155 309q0 104 52 192q50 87 140 140q89 51 192 51v-136q-50 0 -94 -18q-46 -20 -80 -54q-36 -36 -54 -80q-19 -42 -19 -95q0 -39 11 -75q10 -32 37 -67q24 -32 71 -70q93 -78 140 -172q16 -27 28 -75q11 -49 11 -104q0 -121 -58 -219t-158 -157
t-219 -59v136q82 0 150 40q69 40 109 109q40 68 40 150q0 88 -37 138q-41 55 -107 116z" />
    <glyph glyph-name="T" unicode="T" horiz-adv-x="587" 
d="M362 1237v-1237h-137v1237h-205v128h546v-128h-204z" />
    <glyph glyph-name="U" unicode="U" horiz-adv-x="737" 
d="M96 327v1038h136v-1089q0 -78 39 -122q38 -44 104 -44q61 0 96 44q34 43 34 122v1089h137v-1047q0 -88 -11 -137q-10 -47 -41 -90q-37 -54 -94 -80q-57 -28 -128 -28q-80 0 -145 38q-64 37 -97 104q-17 36 -23 79q-7 42 -7 123z" />
    <glyph glyph-name="V" unicode="V" horiz-adv-x="642" 
d="M393 0h-145l-234 1365h140l172 -1061l171 1061h131z" />
    <glyph glyph-name="W" unicode="W" horiz-adv-x="949" 
d="M474 734l-123 -734h-137l-200 1365h136l128 -1024l128 751h137l127 -751l129 1024h136l-200 -1365h-137z" />
    <glyph glyph-name="X" unicode="X" horiz-adv-x="710" 
d="M428 836l268 -836h-136l-205 665l-196 -665h-145l267 836l-165 529h142l97 -335l97 335h142z" />
    <glyph glyph-name="Y" unicode="Y" horiz-adv-x="659" 
d="M397 921v-921h-136v921l-247 444h153l162 -307l162 307h154z" />
    <glyph glyph-name="Z" unicode="Z" horiz-adv-x="621" 
d="M573 137v-137h-546l367 1229h-333v136h512l-366 -1228h366z" />
    <glyph glyph-name="bracketleft" unicode="[" horiz-adv-x="573" 
d="M170 -68v1501h341v-128h-205v-1245h205v-128h-341z" />
    <glyph glyph-name="backslash" unicode="\" horiz-adv-x="762" 
d="M154 1433l595 -1501h-137l-598 1501h140z" />
    <glyph glyph-name="bracketright" unicode="]" horiz-adv-x="573" 
d="M62 1433h341v-1501h-341v128h205v1245h-205v128z" />
    <glyph glyph-name="asciicircum" unicode="^" horiz-adv-x="625" 
d="M393 369l-251 290q-85 97 -85 187q0 64 29 125q28 59 88 99q59 39 138 39q69 0 128 -34q60 -34 95 -94q35 -61 35 -130h-129q0 37 -17 66q-15 27 -46 46q-31 17 -66 17q-59 0 -92 -37t-33 -88q0 -36 21 -66q18 -27 50 -64l236 -265q90 -99 90 -199q0 -106 -71 -192
q-72 -86 -199 -86q-54 0 -104 21q-51 22 -88 60q-38 37 -60 88q-21 50 -21 104h136q0 -56 40 -96q41 -41 97 -41q62 0 99 43q37 41 37 94q0 36 -15 60q-18 26 -42 53z" />
    <glyph glyph-name="underscore" unicode="_" horiz-adv-x="1024" 
d="M1024 -401h-1024v128h1024v-128z" />
    <glyph glyph-name="grave" unicode="`" horiz-adv-x="580" 
d="M341 1484l-204 205h102l205 -205h-103z" />
    <glyph glyph-name="a" unicode="a" horiz-adv-x="751" 
d="M239 401h273v429q0 69 -35 112q-36 41 -95 41q-65 0 -104 -42t-39 -111v-429zM648 273v-273h-136v273h-273v-273h-137v273h-68v128h68v363q0 54 3 91q1 34 8 62q6 26 19 49q23 44 59 76q37 32 84 50q49 17 100 17q73 0 130 -27q56 -29 92 -81q30 -41 41 -90
q10 -44 10 -137v-373h69v-128h-69z" />
    <glyph glyph-name="b" unicode="b" horiz-adv-x="703" 
d="M232 538v-410q73 0 137 37q62 37 100 99q36 62 36 137q0 61 -27 118q-28 58 -73 94q-73 -63 -173 -75zM232 964v-290q54 0 100 39q45 39 45 106q0 61 -42 103t-103 42zM232 0h-136v1092h93q96 0 169 -35q72 -34 110 -97q37 -62 37 -141q0 -50 -16 -91q71 -56 112 -139
q41 -85 41 -179q0 -113 -55 -207t-150 -148q-94 -55 -205 -55z" />
    <glyph glyph-name="c" unicode="c" horiz-adv-x="657" 
d="M616 128v-136q-150 0 -278 74q-126 73 -202 202q-75 128 -75 278q0 152 75 279q75 128 202 201q128 74 278 74v-136q-82 0 -161 -32q-79 -33 -135 -91q-58 -58 -90 -135q-32 -78 -32 -160q0 -81 32 -159q32 -76 91 -136q60 -59 136 -91q78 -32 159 -32z" />
    <glyph glyph-name="d" unicode="d" horiz-adv-x="712" 
d="M96 -8v1108v0q69 0 136 -16q119 -30 215 -108q96 -79 149 -190q54 -112 54 -240q0 -125 -53 -237q-54 -110 -150 -190q-96 -79 -215 -111q-60 -16 -136 -16zM232 941v-790q81 28 146 87q62 56 100 137q36 80 36 171q0 88 -35 169q-37 82 -100 139q-64 59 -147 87z" />
    <glyph glyph-name="e" unicode="e" horiz-adv-x="607" 
d="M512 128v-128h-410v273h-68v128h68v691h410v-128h-273v-563h341v-128h-341v-145h273z" />
    <glyph glyph-name="f" unicode="f" horiz-adv-x="607" 
d="M239 273v-273h-137v273h-68v128h68v691h410v-128h-273v-563h341v-128h-341z" />
    <glyph glyph-name="g" unicode="g" horiz-adv-x="664" 
d="M485 149v261h131v-418q-69 0 -137 16q-120 30 -214 108q-95 78 -149 191q-55 111 -55 239q0 152 75 279q75 128 202 201q128 74 278 74v-136q-82 0 -161 -32q-79 -33 -135 -91q-58 -58 -90 -135q-32 -78 -32 -160q0 -88 36 -169t101 -140q66 -60 150 -88z" />
    <glyph glyph-name="h" unicode="h" horiz-adv-x="744" 
d="M642 273v-273h-137v273h-266v-273h-137v273h-68v128h68v691h137v-691h266v691h137v-691h68v-128h-68z" />
    <glyph glyph-name="i" unicode="i" horiz-adv-x="328" 
d="M232 1092v-1092h-136v1092h136z" />
    <glyph glyph-name="j" unicode="j" horiz-adv-x="519" 
d="M20 -8v136q137 0 213 105q60 84 60 264v595h137v-565q0 -101 -10 -171q-11 -76 -28 -119t-47 -84q-53 -74 -140 -118q-86 -43 -185 -43z" />
    <glyph glyph-name="k" unicode="k" horiz-adv-x="679" 
d="M232 0h-136v1092h136v-290l239 290h171l-233 -276l253 -816h-148l-206 703l-76 -92v-611z" />
    <glyph glyph-name="l" unicode="l" horiz-adv-x="526" 
d="M505 128v-128h-409v1092h137v-964h272z" />
    <glyph glyph-name="m" unicode="m" horiz-adv-x="925" 
d="M829 1092v-1092h-136v886l-231 -306l-230 306v-886h-136v1092h136l230 -290l231 290h136z" />
    <glyph glyph-name="n" unicode="n" horiz-adv-x="737" 
d="M642 1092v-1092h-137v614l-273 290v-904h-136v1092h136l273 -290v290h137z" />
    <glyph glyph-name="o" unicode="o" horiz-adv-x="1249" 
d="M624 973q-85 0 -163 -32q-78 -33 -138 -93q-61 -61 -93 -138q-32 -78 -32 -164q0 -117 58 -214q57 -98 155 -155q97 -58 213 -58q86 0 164 32q77 32 138 93q60 60 93 138q32 78 32 164q0 87 -33 166q-34 80 -91 137t-137 91q-79 33 -166 33zM624 1109q153 0 283 -76
q129 -76 206 -205q75 -129 75 -282t-75 -282q-77 -129 -206 -205q-130 -76 -283 -76q-152 0 -282 76q-130 75 -205 205q-76 130 -76 282t76 282q36 63 87.5 115.5t117.5 90.5q131 75 282 75z" />
    <glyph glyph-name="p" unicode="p" horiz-adv-x="703" 
d="M232 964v-563q115 3 194 85t79 197q0 75 -36 139q-38 64 -99 101q-64 38 -138 41zM96 1092h102q133 0 233 -54q101 -56 156 -148q55 -94 55 -207q0 -86 -31 -158q-31 -73 -88 -131q-58 -58 -133 -89q-78 -32 -158 -32v-273h-136v1092z" />
    <glyph glyph-name="q" unicode="q" horiz-adv-x="1249" 
d="M863 379l88 -108q100 118 100 275q0 87 -33 166q-34 80 -91 137t-137 91q-79 33 -166 33q-85 0 -163 -32q-78 -33 -138 -93q-61 -61 -93 -138q-32 -78 -32 -164q0 -117 58 -214q57 -98 155 -155q97 -58 213 -58q124 0 230 67l-93 113zM1038 164l71 -87l-94 -85l-73 89
q-143 -98 -318 -98q-152 0 -282 76q-130 75 -205 205q-76 130 -76 282t76 282q36 63 87.5 115.5t117.5 90.5q131 75 282 75q153 0 283 -76q129 -76 206 -205q75 -129 75 -282q0 -108 -38 -205q-39 -97 -112 -177z" />
    <glyph glyph-name="r" unicode="r" horiz-adv-x="691" 
d="M232 964v-563q115 3 194 85t79 197q0 75 -36 139q-38 64 -99 101q-64 38 -138 41zM471 0l-239 281v-281h-136v1092h76q167 0 274 -62q104 -61 151 -156q45 -94 45 -191q0 -130 -70 -231q-70 -103 -187 -150l265 -302h-179z" />
    <glyph glyph-name="s" unicode="s" horiz-adv-x="505" 
d="M196 544q-128 108 -128 249q0 83 41 154q40 69 112 112q71 41 154 41v-136q-70 0 -120 -50t-50 -121q0 -40 19 -74q20 -37 59 -69q154 -127 154 -296q0 -98 -48 -181q-50 -83 -133 -132t-182 -49v136q94 0 160 66t66 160q0 103 -104 190z" />
    <glyph glyph-name="t" unicode="t" horiz-adv-x="580" 
d="M358 964v-964h-136v964h-205v128h546v-128h-205z" />
    <glyph glyph-name="u" unicode="u" horiz-adv-x="723" 
d="M89 327v765h136v-828q4 -66 43 -111q37 -43 100 -43q59 0 93 42q34 41 37 111v829h137v-774q0 -88 -11 -137q-10 -47 -41 -90q-37 -54 -94 -80q-57 -28 -128 -28q-80 0 -145 38q-64 37 -97 104q-18 38 -24 81q-6 44 -6 121z" />
    <glyph glyph-name="v" unicode="v" horiz-adv-x="550" 
d="M343 0h-136l-193 1092h136l128 -792l126 792h132z" />
    <glyph glyph-name="w" unicode="w" horiz-adv-x="868" 
d="M434 754l-127 -754h-136l-157 1092h136l96 -751l121 751h136l121 -751l94 751h137l-155 -1092h-137z" />
    <glyph glyph-name="x" unicode="x" horiz-adv-x="573" 
d="M372 631l188 -631h-135l-136 465l-132 -465h-143l187 631l-136 461h132l90 -317l88 317h133z" />
    <glyph glyph-name="y" unicode="y" horiz-adv-x="659" 
d="M397 640v-640h-136v640l-247 452h153l165 -311l163 311h150z" />
    <glyph glyph-name="z" unicode="z" horiz-adv-x="520" 
d="M486 137v-137h-469l282 956h-256v136h443l-290 -955h290z" />
    <glyph glyph-name="braceleft" unicode="{" 
d="M82 1351v-1337h655v1337h-655zM68 0v1365h683v-1365h-683z" />
    <glyph glyph-name="bar" unicode="|" 
d="M82 1351v-1337h655v1337h-655zM68 0v1365h683v-1365h-683z" />
    <glyph glyph-name="braceright" unicode="}" 
d="M82 1351v-1337h655v1337h-655zM68 0v1365h683v-1365h-683z" />
    <glyph glyph-name="asciitilde" unicode="~" 
d="M82 1351v-1337h655v1337h-655zM68 0v1365h683v-1365h-683z" />
    <glyph glyph-name="Adieresis" unicode="&#xc4;" horiz-adv-x="764" 
d="M246 401h273v702q0 70 -35 111q-36 41 -96 41q-64 0 -103 -42t-39 -111v-701zM655 273v-273h-136v273h-273v-273h-137v273h-68v128h68v636q0 54 3 90q1 33 8 61q6 27 19 51q23 44 59 76q37 32 83 50q48 17 100 17q145 0 223 -109q30 -41 41 -90q10 -44 10 -137v-645h68
v-128h-68zM511 1655q28 0 48 -20t20 -48t-20 -48t-48 -20t-48 20t-20 48t20 48t48 20zM238 1655q28 0 48 -20t20 -48t-20 -48t-48 -20t-48 20t-20 48t20 48t48 20z" />
    <glyph glyph-name="Aring" unicode="&#xc5;" horiz-adv-x="764" 
d="M246 401h273v702q0 70 -35 111q-36 41 -96 41q-64 0 -103 -42t-39 -111v-701zM655 273v-273h-136v273h-273v-273h-137v273h-68v128h68v636q0 54 3 90q1 33 8 61q6 27 19 51q23 44 59 76q37 32 83 50q48 17 100 17q145 0 223 -109q30 -41 41 -90q10 -44 10 -137v-645h68
v-128h-68zM381 1655q-28 0 -48 -20t-20 -48t20 -48t48 -20q29 0 48 19q20 20 20 49t-20 49q-19 19 -48 19zM381 1723q57 0 97 -39t40 -97q0 -57 -40 -97t-97 -40q-56 0 -96 40t-40 97q0 58 40 97q41 39 96 39z" />
    <glyph glyph-name="Ccedilla" unicode="&#xc7;" horiz-adv-x="672" 
d="M397 -234v87q8 -6 19 -6q14 0 25 11t11 24q0 10 -5 18t-13 13t-18 5v82q50 0 84 -34t34 -84t-34 -83q-34 -34 -84 -34q-15 0 -19 1zM631 1373v-139q-42 -17 -51 -20q-11 -4 -46 -19q-8 -3 -39 -19q-67 -38 -120.5 -90.5t-90.5 -115.5q-78 -130 -78 -287q0 -158 79 -288
q80 -131 210 -206q100 -45 136 -56v-141v0q-69 14 -136 43q-121 51 -221 151q-99 99 -152 226q-54 128 -54 271q0 142 55 271q54 130 151 227t221 149q58 25 136 43v0z" />
    <glyph glyph-name="Eacute" unicode="&#xc9;" horiz-adv-x="614" 
d="M519 128v-128h-410v964h-68v128h68v273h410v-128h-273v-145h341v-128h-341v-836h273zM445 1689h103l-205 -205h-102z" />
    <glyph glyph-name="Ntilde" unicode="&#xd1;" horiz-adv-x="751" 
d="M648 1365v-1365h-136v887l-273 290v-1177h-137v1365h137l273 -290v290h136zM359 1551q-46 37 -70 37q-32 0 -55 -23q-22 -22 -22 -54h-75q0 43 21 77q19 34 54 55q35 20 77 20q27 0 51 -11q27 -15 53 -34q14 -9 25 -18q7 -6 17 -10q7 -4 24 -4q32 0 55 23q22 22 22 54h75
q0 -42 -20 -77q-21 -35 -55 -54q-34 -21 -77 -21q-53 0 -100 40z" />
    <glyph glyph-name="Odieresis" unicode="&#xd6;" horiz-adv-x="1536" 
d="M892 1655q28 0 48 -20t20 -48t-20 -48t-48 -20t-48 20t-20 48t20 48t48 20zM619 1655q28 0 48 -20t20 -48t-20 -48t-48 -20t-48 20t-20 48t20 48t48 20zM768 1246q-153 0 -282 -75q-129 -77 -205 -206q-76 -130 -76 -282t76 -282q77 -132 205 -206q128 -76 282 -76
t282 76q128 74 205 206q76 130 76 282t-76 282q-76 129 -205 206q-129 75 -282 75zM768 1382q188 0 349 -94q162 -94 256 -256q94 -161 94 -349q0 -190 -94 -350q-94 -162 -256 -256q-161 -94 -349 -94q-138 0 -267 53q-126 52 -227 153t-153 227q-53 129 -53 267
q0 188 94 349q94 162 256 256q160 94 350 94z" />
    <glyph glyph-name="Udieresis" unicode="&#xdc;" horiz-adv-x="737" 
d="M508 1655q28 0 48 -20t20 -48t-20 -48t-48 -20t-48 20t-20 48t20 48t48 20zM235 1655q28 0 48 -20t20 -48t-20 -48t-48 -20t-48 20t-20 48t20 48t48 20zM96 327v1038h136v-1089q0 -78 39 -122q38 -44 104 -44q61 0 96 44q34 43 34 122v1089h137v-1047q0 -88 -11 -137
q-10 -47 -41 -90q-37 -54 -94 -80q-57 -28 -128 -28q-80 0 -145 38q-64 37 -97 104q-17 36 -23 79q-7 42 -7 123z" />
    <glyph glyph-name="aacute" unicode="&#xe1;" horiz-adv-x="751" 
d="M239 401h273v429q0 69 -35 112q-36 41 -95 41q-65 0 -104 -42t-39 -111v-429zM648 273v-273h-136v273h-273v-273h-137v273h-68v128h68v363q0 54 3 91q1 34 8 62q6 26 19 49q23 44 59 76q37 32 84 50q49 17 100 17q73 0 130 -27q56 -29 92 -81q30 -41 41 -90
q10 -44 10 -137v-373h69v-128h-69zM533 1396h103l-205 -205h-102z" />
    <glyph glyph-name="agrave" unicode="&#xe0;" horiz-adv-x="751" 
d="M239 401h273v429q0 69 -35 112q-36 41 -95 41q-65 0 -104 -42t-39 -111v-429zM648 273v-273h-136v273h-273v-273h-137v273h-68v128h68v363q0 54 3 91q1 34 8 62q6 26 19 49q23 44 59 76q37 32 84 50q49 17 100 17q73 0 130 -27q56 -29 92 -81q30 -41 41 -90
q10 -44 10 -137v-373h69v-128h-69zM313 1187l-204 205h102l205 -205h-103z" />
    <glyph glyph-name="acircumflex" unicode="&#xe2;" horiz-adv-x="751" 
d="M239 401h273v429q0 69 -35 112q-36 41 -95 41q-65 0 -104 -42t-39 -111v-429zM648 273v-273h-136v273h-273v-273h-137v273h-68v128h68v363q0 54 3 91q1 34 8 62q6 26 19 49q23 44 59 76q37 32 84 50q49 17 100 17q73 0 130 -27q56 -29 92 -81q30 -41 41 -90
q10 -44 10 -137v-373h69v-128h-69zM584 1200h-102l-103 102l-102 -102h-102l204 205z" />
    <glyph glyph-name="adieresis" unicode="&#xe4;" horiz-adv-x="751" 
d="M239 401h273v429q0 69 -35 112q-36 41 -95 41q-65 0 -104 -42t-39 -111v-429zM648 273v-273h-136v273h-273v-273h-137v273h-68v128h68v363q0 54 3 91q1 34 8 62q6 26 19 49q23 44 59 76q37 32 84 50q49 17 100 17q73 0 130 -27q56 -29 92 -81q30 -41 41 -90
q10 -44 10 -137v-373h69v-128h-69zM505 1362q28 0 48 -20t20 -48t-20 -48t-48 -20t-48 20t-20 48t20 48t48 20zM232 1362q28 0 48 -20t20 -48t-20 -48t-48 -20t-48 20t-20 48t20 48t48 20z" />
    <glyph glyph-name="atilde" unicode="&#xe3;" horiz-adv-x="751" 
d="M239 401h273v429q0 69 -35 112q-36 41 -95 41q-65 0 -104 -42t-39 -111v-429zM648 273v-273h-136v273h-273v-273h-137v273h-68v128h68v363q0 54 3 91q1 34 8 62q6 26 19 49q23 44 59 76q37 32 84 50q49 17 100 17q73 0 130 -27q56 -29 92 -81q30 -41 41 -90
q10 -44 10 -137v-373h69v-128h-69zM358 1264q-46 37 -70 37q-32 0 -55 -23q-22 -22 -22 -54h-75q0 43 21 77q19 34 54 55q35 20 77 20q27 0 51 -11q27 -15 53 -34q14 -9 25 -18q7 -6 17 -10q7 -4 24 -4q32 0 55 23q22 22 22 54h75q0 -42 -20 -77q-21 -35 -55 -54
q-34 -21 -77 -21q-53 0 -100 40z" />
    <glyph glyph-name="aring" unicode="&#xe5;" horiz-adv-x="751" 
d="M239 401h273v429q0 69 -35 112q-36 41 -95 41q-65 0 -104 -42t-39 -111v-429zM648 273v-273h-136v273h-273v-273h-137v273h-68v128h68v363q0 54 3 91q1 34 8 62q6 26 19 49q23 44 59 76q37 32 84 50q49 17 100 17q73 0 130 -27q56 -29 92 -81q30 -41 41 -90
q10 -44 10 -137v-373h69v-128h-69zM376 1372q-28 0 -48 -20t-20 -48t20 -48t48 -20q29 0 48 19q20 20 20 49t-20 49q-19 19 -48 19zM376 1440q57 0 97 -39t40 -97q0 -57 -40 -97t-97 -40q-56 0 -96 40t-40 97q0 58 40 97q41 39 96 39z" />
    <glyph glyph-name="ccedilla" unicode="&#xe7;" horiz-adv-x="657" 
d="M375 -259v86q12 -6 20 -6q14 0 25 11q10 10 10 25q0 13 -11 24t-24 11v82q32 0 59 -15q27 -16 43 -43q15 -27 15 -59q0 -49 -33 -83q-35 -35 -84 -35q-4 0 -20 2zM616 128v-136q-150 0 -278 74q-126 73 -202 202q-75 128 -75 278q0 152 75 279q75 128 202 201
q128 74 278 74v-136q-82 0 -161 -32q-79 -33 -135 -91q-58 -58 -90 -135q-32 -78 -32 -160q0 -81 32 -159q32 -76 91 -136q60 -59 136 -91q78 -32 159 -32z" />
    <glyph glyph-name="eacute" unicode="&#xe9;" horiz-adv-x="607" 
d="M512 128v-128h-410v273h-68v128h68v691h410v-128h-273v-563h341v-128h-341v-145h273zM441 1396h103l-205 -205h-102z" />
    <glyph glyph-name="egrave" unicode="&#xe8;" horiz-adv-x="607" 
d="M512 128v-128h-410v273h-68v128h68v691h410v-128h-273v-563h341v-128h-341v-145h273zM235 1191l-204 205h102l205 -205h-103z" />
    <glyph glyph-name="ecircumflex" unicode="&#xea;" horiz-adv-x="607" 
d="M512 128v-128h-410v273h-68v128h68v691h410v-128h-273v-563h341v-128h-341v-145h273zM513 1196h-102l-103 102l-102 -102h-102l204 205z" />
    <glyph glyph-name="edieresis" unicode="&#xeb;" horiz-adv-x="607" 
d="M512 128v-128h-410v273h-68v128h68v691h410v-128h-273v-563h341v-128h-341v-145h273zM443 1362q28 0 48 -20t20 -48t-20 -48t-48 -20t-48 20t-20 48t20 48t48 20zM170 1362q28 0 48 -20t20 -48t-20 -48t-48 -20t-48 20t-20 48t20 48t48 20z" />
    <glyph glyph-name="iacute" unicode="&#xed;" horiz-adv-x="328" 
d="M287 1396h102l-205 -205h-102zM232 1092v-1092h-136v1092h136z" />
    <glyph glyph-name="igrave" unicode="&#xec;" horiz-adv-x="328" 
d="M143 1187l-204 205h102l205 -205h-103zM232 1092v-1092h-136v1092h136z" />
    <glyph glyph-name="icircumflex" unicode="&#xee;" horiz-adv-x="328" 
d="M369 1198h-103l-102 103l-103 -103h-102l205 205zM232 1092v-1092h-136v1092h136z" />
    <glyph glyph-name="idieresis" unicode="&#xef;" horiz-adv-x="328" 
d="M300 1360q29 0 49 -20t20 -48t-21 -48q-22 -20 -48 -20q-25 0 -47 20q-21 20 -21 48t20 48t48 20zM27 1360q29 0 49 -20t20 -48t-21 -48q-22 -20 -48 -20q-25 0 -47 20q-21 20 -21 48t20 48t48 20zM232 1092v-1092h-136v1092h136z" />
    <glyph glyph-name="ntilde" unicode="&#xf1;" horiz-adv-x="737" 
d="M642 1092v-1092h-137v614l-273 290v-904h-136v1092h136l273 -290v290h137zM354 1261q-46 37 -70 37q-32 0 -55 -23q-22 -22 -22 -54h-75q0 43 21 77q19 34 54 55q35 20 77 20q27 0 51 -11q27 -15 53 -34q14 -9 25 -18q7 -6 17 -10q7 -4 24 -4q32 0 55 23q22 22 22 54h75
q0 -42 -20 -77q-21 -35 -55 -54q-34 -21 -77 -21q-53 0 -100 40z" />
    <glyph glyph-name="oacute" unicode="&#xf3;" horiz-adv-x="1249" 
d="M785 1392h103l-205 -205h-102zM624 973q-85 0 -163 -32q-78 -33 -138 -93q-61 -61 -93 -138q-32 -78 -32 -164q0 -117 58 -214q57 -98 155 -155q97 -58 213 -58q86 0 164 32q77 32 138 93q60 60 93 138q32 78 32 164q0 87 -33 166q-34 80 -91 137t-137 91q-79 33 -166 33
zM624 1109q153 0 283 -76q129 -76 206 -205q75 -129 75 -282t-75 -282q-77 -129 -206 -205q-130 -76 -283 -76q-152 0 -282 76q-130 75 -205 205q-76 130 -76 282t76 282q36 63 87.5 115.5t117.5 90.5q131 75 282 75z" />
    <glyph glyph-name="ograve" unicode="&#xf2;" horiz-adv-x="1249" 
d="M569 1187l-204 205h102l205 -205h-103zM624 973q-85 0 -163 -32q-78 -33 -138 -93q-61 -61 -93 -138q-32 -78 -32 -164q0 -117 58 -214q57 -98 155 -155q97 -58 213 -58q86 0 164 32q77 32 138 93q60 60 93 138q32 78 32 164q0 87 -33 166q-34 80 -91 137t-137 91
q-79 33 -166 33zM624 1109q153 0 283 -76q129 -76 206 -205q75 -129 75 -282t-75 -282q-77 -129 -206 -205q-130 -76 -283 -76q-152 0 -282 76q-130 75 -205 205q-76 130 -76 282t76 282q36 63 87.5 115.5t117.5 90.5q131 75 282 75z" />
    <glyph glyph-name="ocircumflex" unicode="&#xf4;" horiz-adv-x="1249" 
d="M831 1199h-102l-103 102l-102 -102h-102l204 205zM624 973q-85 0 -163 -32q-78 -33 -138 -93q-61 -61 -93 -138q-32 -78 -32 -164q0 -117 58 -214q57 -98 155 -155q97 -58 213 -58q86 0 164 32q77 32 138 93q60 60 93 138q32 78 32 164q0 87 -33 166q-34 80 -91 137
t-137 91q-79 33 -166 33zM624 1109q153 0 283 -76q129 -76 206 -205q75 -129 75 -282t-75 -282q-77 -129 -206 -205q-130 -76 -283 -76q-152 0 -282 76q-130 75 -205 205q-76 130 -76 282t76 282q36 63 87.5 115.5t117.5 90.5q131 75 282 75z" />
    <glyph glyph-name="odieresis" unicode="&#xf6;" horiz-adv-x="1249" 
d="M754 1361q28 0 48 -20t20 -48t-20 -48t-48 -20t-48 20t-20 48t20 48t48 20zM481 1361q28 0 48 -20t20 -48t-20 -48t-48 -20t-48 20t-20 48t20 48t48 20zM624 973q-85 0 -163 -32q-78 -33 -138 -93q-61 -61 -93 -138q-32 -78 -32 -164q0 -117 58 -214q57 -98 155 -155
q97 -58 213 -58q86 0 164 32q77 32 138 93q60 60 93 138q32 78 32 164q0 87 -33 166q-34 80 -91 137t-137 91q-79 33 -166 33zM624 1109q153 0 283 -76q129 -76 206 -205q75 -129 75 -282t-75 -282q-77 -129 -206 -205q-130 -76 -283 -76q-152 0 -282 76q-130 75 -205 205
q-76 130 -76 282t76 282q36 63 87.5 115.5t117.5 90.5q131 75 282 75z" />
    <glyph glyph-name="otilde" unicode="&#xf5;" horiz-adv-x="1249" 
d="M608 1254q-46 37 -70 37q-32 0 -55 -23q-22 -22 -22 -54h-75q0 43 21 77q19 34 54 55q35 20 77 20q27 0 51 -11q27 -15 53 -34q14 -9 25 -18q7 -6 17 -10q7 -4 24 -4q32 0 55 23q22 22 22 54h75q0 -42 -20 -77q-21 -35 -55 -54q-34 -21 -77 -21q-53 0 -100 40zM624 973
q-85 0 -163 -32q-78 -33 -138 -93q-61 -61 -93 -138q-32 -78 -32 -164q0 -117 58 -214q57 -98 155 -155q97 -58 213 -58q86 0 164 32q77 32 138 93q60 60 93 138q32 78 32 164q0 87 -33 166q-34 80 -91 137t-137 91q-79 33 -166 33zM624 1109q153 0 283 -76
q129 -76 206 -205q75 -129 75 -282t-75 -282q-77 -129 -206 -205q-130 -76 -283 -76q-152 0 -282 76q-130 75 -205 205q-76 130 -76 282t76 282q36 63 87.5 115.5t117.5 90.5q131 75 282 75z" />
    <glyph glyph-name="uacute" unicode="&#xfa;" horiz-adv-x="723" 
d="M518 1395h103l-205 -205h-102zM89 327v765h136v-828q4 -66 43 -111q37 -43 100 -43q59 0 93 42q34 41 37 111v829h137v-774q0 -88 -11 -137q-10 -47 -41 -90q-37 -54 -94 -80q-57 -28 -128 -28q-80 0 -145 38q-64 37 -97 104q-18 38 -24 81q-6 44 -6 121z" />
    <glyph glyph-name="ugrave" unicode="&#xf9;" horiz-adv-x="723" 
d="M305 1187l-204 205h102l205 -205h-103zM89 327v765h136v-828q4 -66 43 -111q37 -43 100 -43q59 0 93 42q34 41 37 111v829h137v-774q0 -88 -11 -137q-10 -47 -41 -90q-37 -54 -94 -80q-57 -28 -128 -28q-80 0 -145 38q-64 37 -97 104q-18 38 -24 81q-6 44 -6 121z" />
    <glyph glyph-name="ucircumflex" unicode="&#xfb;" horiz-adv-x="723" 
d="M561 1199h-102l-103 102l-102 -102h-102l204 205zM89 327v765h136v-828q4 -66 43 -111q37 -43 100 -43q59 0 93 42q34 41 37 111v829h137v-774q0 -88 -11 -137q-10 -47 -41 -90q-37 -54 -94 -80q-57 -28 -128 -28q-80 0 -145 38q-64 37 -97 104q-18 38 -24 81
q-6 44 -6 121z" />
    <glyph glyph-name="udieresis" unicode="&#xfc;" horiz-adv-x="723" 
d="M502 1361q28 0 48 -20t20 -48t-20 -48t-48 -20t-48 20t-20 48t20 48t48 20zM229 1361q28 0 48 -20t20 -48t-20 -48t-48 -20t-48 20t-20 48t20 48t48 20zM89 327v765h136v-828q4 -66 43 -111q37 -43 100 -43q59 0 93 42q34 41 37 111v829h137v-774q0 -88 -11 -137
q-10 -47 -41 -90q-37 -54 -94 -80q-57 -28 -128 -28q-80 0 -145 38q-64 37 -97 104q-18 38 -24 81q-6 44 -6 121z" />
    <glyph glyph-name="dagger" unicode="&#x2020;" 
d="M82 1351v-1337h655v1337h-655zM68 0v1365h683v-1365h-683z" />
    <glyph glyph-name="degree" unicode="&#xb0;" 
d="M82 1351v-1337h655v1337h-655zM68 0v1365h683v-1365h-683z" />
    <glyph glyph-name="cent" unicode="&#xa2;" horiz-adv-x="544" 
d="M496 273h-25q-27 0 -68 6v-74h-69v91q-79 27 -140 84q-64 58 -98 138q-35 81 -35 165q0 65 21 128q22 63 57 112q34 49 86 87q53 39 109 59v91h69v-74q32 6 68 6h25v-136h-25q-35 0 -68 -9v-529q37 -8 68 -8h25v-137zM334 446v473q-60 -33 -98 -98t-38 -138
q0 -75 37 -137t99 -100z" />
    <glyph glyph-name="sterling" unicode="&#xa3;" horiz-adv-x="751" 
d="M587 1376v-139q-31 9 -68 9q-119 0 -196 -84q-77 -85 -77 -241v-520h477v-128h-477v-145h409v-128h-546v273h-68v128h68v524q0 138 55 241q53 102 149 160q95 56 206 56q34 0 68 -6z" />
    <glyph glyph-name="section" unicode="&#xa7;" horiz-adv-x="654" 
d="M287 594q-39 -34 -64 -89q-25 -53 -25 -113q0 -56 22 -104q21 -51 59 -89t88 -59t104 -21v273h128v-241v-150q-52 -18 -128 -18q-112 0 -206 55q-93 55 -149 150q-55 94 -55 204q0 91 39 173q38 83 105 138q-24 56 -24 116q0 79 39 146q39 66 106 105q66 39 145 39
q28 0 68 -8v-144q-31 16 -68 16q-41 0 -76 -21q-36 -21 -57 -56q-21 -36 -21 -77q0 -66 47 -110t107 -44v-136q-102 0 -184 65z" />
    <glyph glyph-name="bullet" unicode="&#x2022;" horiz-adv-x="458" 
d="M229 843q67 0 114 -47t47 -113q0 -67 -47 -114t-114 -47t-114 47t-47 114q0 66 47 113t114 47z" />
    <glyph glyph-name="paragraph" unicode="&#xb6;" 
d="M82 1351v-1337h655v1337h-655zM68 0v1365h683v-1365h-683z" />
    <glyph glyph-name="germandbls" unicode="&#xdf;" 
d="M82 1351v-1337h655v1337h-655zM68 0v1365h683v-1365h-683z" />
    <glyph glyph-name="registered" unicode="&#xae;" 
d="M82 1351v-1337h655v1337h-655zM68 0v1365h683v-1365h-683z" />
    <glyph glyph-name="copyright" unicode="&#xa9;" 
d="M82 1351v-1337h655v1337h-655zM68 0v1365h683v-1365h-683z" />
    <glyph glyph-name="trademark" unicode="&#x2122;" 
d="M82 1351v-1337h655v1337h-655zM68 0v1365h683v-1365h-683z" />
    <glyph glyph-name="acute" unicode="&#xb4;" horiz-adv-x="580" 
d="M341 1689h103l-205 -205h-102z" />
    <glyph glyph-name="dieresis" unicode="&#xa8;" horiz-adv-x="683" 
d="M478 1655q28 0 48 -20t20 -48t-20 -48t-48 -20t-48 20t-20 48t20 48t48 20zM205 1655q28 0 48 -20t20 -48t-20 -48t-48 -20t-48 20t-20 48t20 48t48 20z" />
    <glyph glyph-name="notequal" unicode="&#x2260;" 
d="M82 1351v-1337h655v1337h-655zM68 0v1365h683v-1365h-683z" />
    <glyph glyph-name="AE" unicode="&#xc6;" horiz-adv-x="1024" 
d="M246 401h273v702q0 70 -35 111q-36 41 -96 41q-64 0 -103 -42t-39 -111v-701zM587 1295q77 87 205 87h136v-127h-143q-59 0 -94 -41q-36 -40 -36 -111v-702h341v-128h-341v-145h273v-128h-409v273h-273v-273h-137v273h-68v128h68v636q0 54 3 90q1 33 8 61q6 27 19 51
q23 44 59 76q37 32 83 50q48 17 100 17q128 0 206 -87z" />
    <glyph glyph-name="Oslash" unicode="&#xd8;" horiz-adv-x="1536" 
d="M1212 1030l-791 -790q150 -120 347 -120q152 0 282 76q131 75 207 205q76 128 76 282q0 99 -31 186t-90 161zM330 330l792 791q-71 59 -161 92q-93 32 -193 32q-149 0 -280 -75q-132 -77 -206 -206q-76 -130 -76 -281q0 -184 124 -353zM323 142l-142 -142l-91 90l142 142
q-164 191 -164 451q0 187 94 350q95 162 257 256q161 94 349 94q83 0 163 -19t154 -56q69 -35 135 -89l146 146l91 -90l-147 -147q53 -64 87 -132q35 -69 54 -150q19 -79 19 -163q0 -141 -54 -270q-56 -130 -151 -225t-226 -151q-129 -55 -271 -55q-251 0 -445 160z" />
    <glyph glyph-name="infinity" unicode="&#x221e;" 
d="M82 1351v-1337h655v1337h-655zM68 0v1365h683v-1365h-683z" />
    <glyph glyph-name="plusminus" unicode="&#xb1;" horiz-adv-x="1232" 
d="M616 1245q-82 0 -161 -32q-79 -33 -135 -91q-58 -58 -90 -135q-32 -78 -32 -160q0 -81 32 -159q31 -75 91 -135q60 -59 136 -91q78 -32 159 -32q82 0 160 32q77 32 135 90q58 56 91 135q32 78 32 160q0 83 -32 162q-33 77 -90 134t-134 90q-79 32 -162 32zM616 1382
q150 0 278 -74q127 -75 202 -202q74 -128 74 -278t-74 -278q-76 -129 -202 -202q-127 -75 -278 -75q-150 0 -278 74q-126 73 -202 202q-75 128 -75 279q0 152 75 279q75 128 202 201q128 74 278 74zM343 0l136 128h410l-137 -128h-409z" />
    <glyph glyph-name="lessequal" unicode="&#x2264;" 
d="M82 1351v-1337h655v1337h-655zM68 0v1365h683v-1365h-683z" />
    <glyph glyph-name="greaterequal" unicode="&#x2265;" 
d="M82 1351v-1337h655v1337h-655zM68 0v1365h683v-1365h-683z" />
    <glyph glyph-name="yen" unicode="&#xa5;" horiz-adv-x="659" 
d="M534 793h-137v-793h-136v793h-137v128h137l-247 444h153l162 -324l162 324h154l-248 -444h137v-128z" />
    <glyph glyph-name="mu" unicode="&#xb5;" horiz-adv-x="959" 
d="M206 0l137 128h409l-136 -128h-410zM479 973q-76 0 -140 -37q-65 -38 -103 -103q-38 -67 -38 -142t38 -140t103 -103t140 -38q76 0 141 38t103 103t38 140q0 59 -22 110q-23 54 -59 90q-38 37 -90 59q-55 23 -111 23zM479 1109q83 0 162 -32q77 -33 134 -90t90 -134
q32 -79 32 -162q0 -82 -32 -161q-33 -79 -91 -135q-58 -58 -135 -90q-78 -32 -160 -32q-81 0 -159 32q-75 31 -135 91q-61 59 -92 135q-32 78 -32 160q0 83 32 161q31 75 90 134q58 58 136 91q78 32 160 32z" />
    <glyph glyph-name="partialdiff" unicode="&#x2202;" 
d="M82 1351v-1337h655v1337h-655zM68 0v1365h683v-1365h-683z" />
    <glyph glyph-name="summation" unicode="&#x3a3;" 
d="M82 1351v-1337h655v1337h-655zM68 0v1365h683v-1365h-683z" />
    <glyph glyph-name="product" unicode="&#x220f;" 
d="M82 1351v-1337h655v1337h-655zM68 0v1365h683v-1365h-683z" />
    <glyph glyph-name="pi" unicode="&#x3c0;" 
d="M82 1351v-1337h655v1337h-655zM68 0v1365h683v-1365h-683z" />
    <glyph glyph-name="integral" unicode="&#x222b;" 
d="M82 1351v-1337h655v1337h-655zM68 0v1365h683v-1365h-683z" />
    <glyph glyph-name="ordfeminine" unicode="&#xaa;" 
d="M82 1351v-1337h655v1337h-655zM68 0v1365h683v-1365h-683z" />
    <glyph glyph-name="ordmasculine" unicode="&#xba;" 
d="M82 1351v-1337h655v1337h-655zM68 0v1365h683v-1365h-683z" />
    <glyph glyph-name="Omega" unicode="&#x3a9;" 
d="M82 1351v-1337h655v1337h-655zM68 0v1365h683v-1365h-683z" />
    <glyph glyph-name="ae" unicode="&#xe6;" horiz-adv-x="1017" 
d="M239 401h273v429q0 69 -35 112q-36 41 -95 41q-65 0 -104 -42t-39 -111v-429zM580 1023q75 86 205 86h136v-126h-143q-59 0 -94 -41q-36 -42 -36 -112v-429h342v-128h-342v-145h273v-128h-409v273h-273v-273h-137v273h-68v128h68v363q0 54 3 91q1 34 8 62q6 26 19 49
q23 44 59 76q37 32 84 50q49 17 100 17q128 0 205 -86z" />
    <glyph glyph-name="oslash" unicode="&#xf8;" horiz-adv-x="1249" 
d="M294 277l569 623q-107 73 -239 73q-85 0 -163 -32q-78 -33 -138 -93q-61 -61 -93 -138q-32 -78 -32 -164q0 -77 25 -143q26 -71 71 -126zM963 805l-567 -619q104 -67 228 -67q86 0 164 32q77 32 138 93q60 60 93 138q32 78 32 164q0 147 -88 259zM1136 994l-79 -87
q60 -70 96 -164q35 -96 35 -197q0 -153 -75 -282q-77 -129 -206 -205q-130 -76 -283 -76q-173 0 -321 101l-77 -84l-96 97l71 78q-44 50 -75 109t-48 126q-17 68 -17 136q0 152 76 282q36 63 87.5 115.5t117.5 90.5q131 75 282 75q87 0 171 -26q82 -27 160 -81l83 90z" />
    <glyph glyph-name="questiondown" unicode="&#xbf;" horiz-adv-x="665" 
d="M495 1203q-35 0 -60 25t-25 60t24 60t61 25q23 0 43 -11q19 -12 31 -31q11 -20 11 -43q0 -37 -25 -61t-60 -24zM427 919v165h136v-282q-91 0 -171 -45q-80 -47 -124 -125q-46 -79 -46 -171q0 -94 46 -171q45 -78 124 -124q80 -47 171 -47v-136q-97 0 -183 37
q-85 35 -154 104t-104 154q-37 86 -37 183q0 103 44 199q43 93 121 162q76 67 177 97z" />
    <glyph glyph-name="exclamdown" unicode="&#xa1;" horiz-adv-x="341" 
d="M171 1211q-34 0 -60 26t-26 60q0 35 25 60t61 25q23 0 43 -11q19 -12 31 -31q11 -20 11 -43q0 -36 -25 -61t-60 -25zM103 1092h137v-1092h-137v1092z" />
    <glyph glyph-name="logicalnot" unicode="&#xac;" 
d="M82 1351v-1337h655v1337h-655zM68 0v1365h683v-1365h-683z" />
    <glyph glyph-name="radical" unicode="&#x221a;" 
d="M82 1351v-1337h655v1337h-655zM68 0v1365h683v-1365h-683z" />
    <glyph glyph-name="florin" unicode="&#x192;" horiz-adv-x="870" 
d="M509 759l-128 -707q-40 -223 -210 -223q-57 0 -103 28q-47 27 -74 74q-28 46 -28 103h136q0 -28 21 -48q22 -20 48 -20q56 0 72 87l127 706h-135l24 128h134l62 340q19 110 73 167q53 56 137 56q57 0 103 -27q47 -28 75 -75q27 -46 27 -103h-136q0 28 -20 48t-49 20
q-57 0 -72 -83l-61 -343h136l-24 -128h-135z" />
    <glyph glyph-name="approxequal" unicode="&#x2248;" 
d="M82 1351v-1337h655v1337h-655zM68 0v1365h683v-1365h-683z" />
    <glyph glyph-name="Delta" unicode="&#x2206;" 
d="M82 1351v-1337h655v1337h-655zM68 0v1365h683v-1365h-683z" />
    <glyph glyph-name="guillemotleft" unicode="&#xab;" horiz-adv-x="563" 
d="M503 273h-128l-119 273l119 273h128l-119 -273zM290 273h-128l-119 273l119 273h128l-119 -273z" />
    <glyph glyph-name="guillemotright" unicode="&#xbb;" horiz-adv-x="563" 
d="M307 546l-119 -273h-128l119 273l-119 273h128zM520 546l-119 -273h-128l119 273l-119 273h128z" />
    <glyph glyph-name="ellipsis" unicode="&#x2026;" horiz-adv-x="2048" 
d="M343 154q35 0 60 -25t25 -61q0 -37 -25 -61t-60 -24t-60 25t-25 60t25 60q26 26 60 26zM1022 154q35 0 60 -25t25 -61q0 -37 -25 -61t-60 -24t-60 25t-25 60t25 60q26 26 60 26zM1705 154q35 0 60 -25t25 -61q0 -37 -25 -61t-60 -24t-60 25q-26 26 -26 60t26 60t60 26z
" />
    <glyph glyph-name="nonbreakingspace" unicode="&#xa0;" horiz-adv-x="491" 
 />
    <glyph glyph-name="Agrave" unicode="&#xc0;" horiz-adv-x="764" 
d="M246 401h273v702q0 70 -35 111q-36 41 -96 41q-64 0 -103 -42t-39 -111v-701zM655 273v-273h-136v273h-273v-273h-137v273h-68v128h68v636q0 54 3 90q1 33 8 61q6 27 19 51q23 44 59 76q37 32 83 50q48 17 100 17q145 0 223 -109q30 -41 41 -90q10 -44 10 -137v-645h68
v-128h-68zM327 1484l-204 205h102l205 -205h-103z" />
    <glyph glyph-name="Atilde" unicode="&#xc3;" horiz-adv-x="764" 
d="M246 401h273v702q0 70 -35 111q-36 41 -96 41q-64 0 -103 -42t-39 -111v-701zM655 273v-273h-136v273h-273v-273h-137v273h-68v128h68v636q0 54 3 90q1 33 8 61q6 27 19 51q23 44 59 76q37 32 83 50q48 17 100 17q145 0 223 -109q30 -41 41 -90q10 -44 10 -137v-645h68
v-128h-68zM351 1551q-46 37 -70 37q-32 0 -55 -23q-22 -22 -22 -54h-75q0 43 21 77q19 34 54 55q35 20 77 20q27 0 51 -11q27 -15 53 -34q14 -9 25 -18q7 -6 17 -10q7 -4 24 -4q32 0 55 23q22 22 22 54h75q0 -42 -20 -77q-21 -35 -55 -54q-34 -21 -77 -21q-53 0 -100 40z
" />
    <glyph glyph-name="Otilde" unicode="&#xd5;" horiz-adv-x="1536" 
d="M746 1551q-46 37 -70 37q-32 0 -55 -23q-22 -22 -22 -54h-75q0 43 21 77q19 34 54 55q35 20 77 20q27 0 51 -11q27 -15 53 -34q14 -9 25 -18q7 -6 17 -10q7 -4 24 -4q32 0 55 23q22 22 22 54h75q0 -42 -20 -77q-21 -35 -55 -54q-34 -21 -77 -21q-53 0 -100 40zM768 1246
q-153 0 -282 -75q-129 -77 -205 -206q-76 -130 -76 -282t76 -282q77 -132 205 -206q128 -76 282 -76t282 76q128 74 205 206q76 130 76 282t-76 282q-76 129 -205 206q-129 75 -282 75zM768 1382q188 0 349 -94q162 -94 256 -256q94 -161 94 -349q0 -190 -94 -350
q-94 -162 -256 -256q-161 -94 -349 -94q-138 0 -267 53q-126 52 -227 153t-153 227q-53 129 -53 267q0 188 94 349q94 162 256 256q160 94 350 94z" />
    <glyph glyph-name="OE" unicode="&#x152;" horiz-adv-x="1825" 
d="M1333 683q0 153 -76 283q-76 129 -206 204t-283 75q-149 0 -280 -75q-132 -77 -206 -206q-76 -130 -76 -281q0 -152 76 -282q75 -130 205 -205q130 -76 282 -76q153 0 283 76q129 76 206 205q75 129 75 282zM1320 0v270q-61 -90 -141 -152q-79 -63 -185 -100
q-103 -36 -225 -36q-143 0 -269 55q-129 54 -226 151t-151 226q-55 126 -55 269q0 187 94 350q95 162 257 256q161 94 349 94q118 0 223 -36q104 -37 189 -102q86 -67 140 -151v271h409v-128h-273v-145h342v-128h-342v-836h273v-128h-409z" />
    <glyph glyph-name="oe" unicode="&#x153;" horiz-adv-x="1543" 
d="M624 973q-85 0 -163 -32q-78 -33 -138 -93q-61 -61 -93 -138q-32 -78 -32 -164q0 -117 58 -214q57 -98 155 -155q97 -58 213 -58q122 0 219 60q98 60 153 159q55 97 55 208q0 131 -65 229q-67 99 -164 148q-100 50 -198 50zM1038 911v181h410v-128h-273v-563h341v-128
h-341v-145h273v-128h-410v186q-26 -38 -70 -79q-43 -38 -95 -65q-53 -28 -118 -43q-63 -16 -131 -16q-152 0 -282 76q-131 77 -205 206q-76 128 -76 281q0 152 76 282q75 129 205 205t282 76q131 0 237 -54q107 -55 177 -144z" />
    <glyph glyph-name="endash" unicode="&#x2013;" horiz-adv-x="715" 
d="M647 610v-128h-579v128h579z" />
    <glyph glyph-name="emdash" unicode="&#x2014;" horiz-adv-x="2184" 
d="M2116 482h-2048v128h2048v-128z" />
    <glyph glyph-name="quotedblleft" unicode="&#x201c;" horiz-adv-x="515" 
d="M371 1382v-123q33 0 55 -22t22 -55q0 -31 -23 -54q-22 -22 -54 -22q-38 0 -61 29q-24 29 -24 73q3 98 85 174zM164 1382v-123q33 0 55 -22t22 -55q0 -30 -23 -53q-25 -23 -54 -23q-37 0 -61 29q-25 28 -25 73q3 96 86 174z" />
    <glyph glyph-name="quotedblright" unicode="&#x201d;" horiz-adv-x="515" 
d="M143 1106v123q-30 0 -53 23t-23 53q0 32 22 54q23 23 54 23q39 0 63 -27q23 -29 23 -75q-3 -96 -86 -174zM351 1106v123q-30 0 -53 23q-24 23 -24 53q0 32 22 54q23 23 55 23q38 0 62 -27q23 -29 23 -75q-3 -98 -85 -174z" />
    <glyph glyph-name="quoteleft" unicode="&#x2018;" horiz-adv-x="307" 
d="M164 1382v-123q33 0 55 -22t22 -55q0 -30 -23 -53q-25 -23 -54 -23q-37 0 -61 29q-25 28 -25 73q3 96 86 174z" />
    <glyph glyph-name="quoteright" unicode="&#x2019;" horiz-adv-x="307" 
d="M143 1106v123q-30 0 -53 23t-23 53q0 32 22 54q23 23 54 23q39 0 63 -27q23 -29 23 -75q-3 -96 -86 -174z" />
    <glyph glyph-name="divide" unicode="&#xf7;" 
d="M82 1351v-1337h655v1337h-655zM68 0v1365h683v-1365h-683z" />
    <glyph glyph-name="lozenge" unicode="&#x25ca;" 
d="M82 1351v-1337h655v1337h-655zM68 0v1365h683v-1365h-683z" />
    <glyph glyph-name="ydieresis" unicode="&#xff;" horiz-adv-x="659" 
d="M397 640v-640h-136v640l-247 452h153l165 -311l163 311h150zM464 1362q28 0 48 -20t20 -48t-20 -48t-48 -20t-48 20t-20 48t20 48t48 20zM191 1362q28 0 48 -20t20 -48t-20 -48t-48 -20t-48 20t-20 48t20 48t48 20z" />
    <glyph glyph-name="Ydieresis" unicode="&#x178;" horiz-adv-x="659" 
d="M397 921v-921h-136v921l-247 444h153l162 -307l162 307h154zM460 1655q28 0 48 -20t20 -48t-20 -48t-48 -20t-48 20t-20 48t20 48t48 20zM187 1655q28 0 48 -20t20 -48t-20 -48t-48 -20t-48 20t-20 48t20 48t48 20z" />
    <glyph glyph-name="fraction" unicode="&#x2215;" 
d="M82 1351v-1337h655v1337h-655zM68 0v1365h683v-1365h-683z" />
    <glyph glyph-name="currency" unicode="&#xa4;" 
d="M82 1351v-1337h655v1337h-655zM68 0v1365h683v-1365h-683z" />
    <glyph glyph-name="guilsinglleft" unicode="&#x2039;" horiz-adv-x="350" 
d="M290 273h-128l-119 273l119 273h128l-119 -273z" />
    <glyph glyph-name="guilsinglright" unicode="&#x203a;" horiz-adv-x="350" 
d="M307 546l-119 -273h-128l119 273l-119 273h128z" />
    <glyph glyph-name="fi" unicode="&#xf001;" 
d="M82 1351v-1337h655v1337h-655zM68 0v1365h683v-1365h-683z" />
    <glyph glyph-name="fl" unicode="&#xf002;" 
d="M82 1351v-1337h655v1337h-655zM68 0v1365h683v-1365h-683z" />
    <glyph glyph-name="daggerdbl" unicode="&#x2021;" 
d="M82 1351v-1337h655v1337h-655zM68 0v1365h683v-1365h-683z" />
    <glyph glyph-name="periodcentered" unicode="&#xb7;" horiz-adv-x="307" 
d="M154 770q35 0 60 -25t25 -61q0 -37 -25 -61t-60 -24t-60 25q-26 26 -26 60t26 60t60 26z" />
    <glyph glyph-name="periodcentered" unicode="&#x2219;" horiz-adv-x="307" 
d="M154 770q35 0 60 -25t25 -61q0 -37 -25 -61t-60 -24t-60 25q-26 26 -26 60t26 60t60 26z" />
    <glyph glyph-name="quotesinglbase" unicode="&#x201a;" horiz-adv-x="959" 
d="M479 691q-75 0 -140 -38q-66 -38 -103 -102q-38 -65 -38 -141q0 -75 38 -140q37 -66 103 -104q65 -38 140 -38q76 0 141 38q66 38 103 104q38 65 38 140q0 59 -22 110q-23 54 -59 90q-35 35 -91 59q-51 22 -110 22zM479 827q83 0 162 -32q77 -33 134 -90t90 -134
q32 -79 32 -161t-32 -161q-33 -79 -91 -135q-58 -58 -135 -90q-78 -32 -160 -32q-81 0 -159 32q-75 31 -135 91q-61 59 -92 135q-32 78 -32 160t32 160q31 75 90 134q58 58 136 91q78 32 160 32z" />
    <glyph glyph-name="quotedblbase" unicode="&#x201e;" horiz-adv-x="515" 
d="M143 -123v123q-30 0 -53 23t-23 54q0 29 23 54q23 23 53 23q39 0 63 -28q23 -29 23 -75q-3 -96 -86 -174zM351 -123v123q-30 0 -53 23q-24 23 -24 54q0 29 23 54q23 23 54 23q38 0 62 -28q23 -29 23 -75q-3 -98 -85 -174z" />
    <glyph glyph-name="perthousand" unicode="&#x2030;" horiz-adv-x="1075" 
d="M853 265q-42 0 -72 -31t-30 -72q0 -40 31 -71t71 -31q41 0 72 30t31 72q0 20 -8 41q-7 20 -21 33q-13 14 -33 21q-21 8 -41 8zM853 333q47 0 87 -23q38 -23 61 -61q23 -40 23 -87q0 -70 -50 -120t-121 -50q-70 0 -120 50t-50 120q0 71 50 121t120 50zM444 265
q-43 0 -73 -31t-30 -72q0 -40 31 -71t72 -31q42 0 72 30t30 72q0 20 -8 41q-7 20 -21 33q-14 14 -32 21q-21 8 -41 8zM444 333q45 0 86 -23q39 -22 62 -61q22 -38 22 -87q0 -71 -49 -120q-50 -50 -121 -50t-121 50t-50 120q0 71 50 121t121 50zM222 1305q-43 0 -73 -30
t-30 -72q0 -41 31 -72t72 -31q42 0 72 30t30 73q0 20 -8 41q-7 18 -21 32t-32 21q-21 8 -41 8zM222 1373q46 0 86 -22q39 -23 62 -62q22 -40 22 -86q0 -72 -49 -121q-50 -50 -121 -50t-121 50t-50 121t50 121q49 49 121 49zM614 1365l-486 -1365h-77l487 1365h76z" />
    <glyph glyph-name="Acircumflex" unicode="&#xc2;" horiz-adv-x="764" 
d="M246 401h273v702q0 70 -35 111q-36 41 -96 41q-64 0 -103 -42t-39 -111v-701zM655 273v-273h-136v273h-273v-273h-137v273h-68v128h68v636q0 54 3 90q1 33 8 61q6 27 19 51q23 44 59 76q37 32 83 50q48 17 100 17q145 0 223 -109q30 -41 41 -90q10 -44 10 -137v-645h68
v-128h-68zM588 1493h-102l-103 102l-102 -102h-102l204 205z" />
    <glyph glyph-name="Ecircumflex" unicode="&#xca;" horiz-adv-x="614" 
d="M519 128v-128h-410v964h-68v128h68v273h410v-128h-273v-145h341v-128h-341v-836h273zM519 1493h-102l-103 102l-102 -102h-102l204 205z" />
    <glyph glyph-name="Aacute" unicode="&#xc1;" horiz-adv-x="764" 
d="M246 401h273v702q0 70 -35 111q-36 41 -96 41q-64 0 -103 -42t-39 -111v-701zM655 273v-273h-136v273h-273v-273h-137v273h-68v128h68v636q0 54 3 90q1 33 8 61q6 27 19 51q23 44 59 76q37 32 83 50q48 17 100 17q145 0 223 -109q30 -41 41 -90q10 -44 10 -137v-645h68
v-128h-68zM535 1689h103l-205 -205h-102z" />
    <glyph glyph-name="Edieresis" unicode="&#xcb;" horiz-adv-x="614" 
d="M519 128v-128h-410v964h-68v128h68v273h410v-128h-273v-145h341v-128h-341v-836h273zM453 1655q28 0 48 -20t20 -48t-20 -48t-48 -20t-48 20t-20 48t20 48t48 20zM180 1655q28 0 48 -20t20 -48t-20 -48t-48 -20t-48 20t-20 48t20 48t48 20z" />
    <glyph glyph-name="Egrave" unicode="&#xc8;" horiz-adv-x="614" 
d="M519 128v-128h-410v964h-68v128h68v273h410v-128h-273v-145h341v-128h-341v-836h273zM303 1484l-204 205h102l205 -205h-103z" />
    <glyph glyph-name="Iacute" unicode="&#xcd;" horiz-adv-x="341" 
d="M293 1689h103l-205 -205h-102zM239 1365v-1365h-137v1365h137z" />
    <glyph glyph-name="Icircumflex" unicode="&#xce;" horiz-adv-x="341" 
d="M375 1493h-102l-102 102l-103 -102h-102l205 205zM239 1365v-1365h-137v1365h137z" />
    <glyph glyph-name="Idieresis" unicode="&#xcf;" horiz-adv-x="341" 
d="M307 1655q29 0 48 -19q20 -20 20 -49t-20 -49q-19 -19 -48 -19q-28 0 -48 20t-20 48t20 48t48 20zM34 1655q29 0 48 -19q20 -20 20 -49t-20 -49q-19 -19 -48 -19q-28 0 -48 20t-20 48t20 48t48 20zM239 1365v-1365h-137v1365h137z" />
    <glyph glyph-name="Igrave" unicode="&#xcc;" horiz-adv-x="341" 
d="M150 1484l-205 205h103l205 -205h-103zM239 1365v-1365h-137v1365h137z" />
    <glyph glyph-name="Oacute" unicode="&#xd3;" horiz-adv-x="1536" 
d="M923 1689h103l-205 -205h-102zM768 1246q-153 0 -282 -75q-129 -77 -205 -206q-76 -130 -76 -282t76 -282q77 -132 205 -206q128 -76 282 -76t282 76q128 74 205 206q76 130 76 282t-76 282q-76 129 -205 206q-129 75 -282 75zM768 1382q188 0 349 -94q162 -94 256 -256
q94 -161 94 -349q0 -190 -94 -350q-94 -162 -256 -256q-161 -94 -349 -94q-138 0 -267 53q-126 52 -227 153t-153 227q-53 129 -53 267q0 188 94 349q94 162 256 256q160 94 350 94z" />
    <glyph glyph-name="Ocircumflex" unicode="&#xd4;" horiz-adv-x="1536" 
d="M978 1493h-102l-103 102l-102 -102h-102l204 205zM768 1246q-153 0 -282 -75q-129 -77 -205 -206q-76 -130 -76 -282t76 -282q77 -132 205 -206q128 -76 282 -76t282 76q128 74 205 206q76 130 76 282t-76 282q-76 129 -205 206q-129 75 -282 75zM768 1382q188 0 349 -94
q162 -94 256 -256q94 -161 94 -349q0 -190 -94 -350q-94 -162 -256 -256q-161 -94 -349 -94q-138 0 -267 53q-126 52 -227 153t-153 227q-53 129 -53 267q0 188 94 349q94 162 256 256q160 94 350 94z" />
    <glyph glyph-name="apple" unicode="&#xf000;" 
d="M82 1351v-1337h655v1337h-655zM68 0v1365h683v-1365h-683z" />
    <glyph glyph-name="Ograve" unicode="&#xd2;" horiz-adv-x="1536" 
d="M710 1484l-204 205h102l205 -205h-103zM768 1246q-153 0 -282 -75q-129 -77 -205 -206q-76 -130 -76 -282t76 -282q77 -132 205 -206q128 -76 282 -76t282 76q128 74 205 206q76 130 76 282t-76 282q-76 129 -205 206q-129 75 -282 75zM768 1382q188 0 349 -94
q162 -94 256 -256q94 -161 94 -349q0 -190 -94 -350q-94 -162 -256 -256q-161 -94 -349 -94q-138 0 -267 53q-126 52 -227 153t-153 227q-53 129 -53 267q0 188 94 349q94 162 256 256q160 94 350 94z" />
    <glyph glyph-name="Uacute" unicode="&#xda;" horiz-adv-x="737" 
d="M533 1689h103l-205 -205h-102zM96 327v1038h136v-1089q0 -78 39 -122q38 -44 104 -44q61 0 96 44q34 43 34 122v1089h137v-1047q0 -88 -11 -137q-10 -47 -41 -90q-37 -54 -94 -80q-57 -28 -128 -28q-80 0 -145 38q-64 37 -97 104q-17 36 -23 79q-7 42 -7 123z" />
    <glyph glyph-name="Ucircumflex" unicode="&#xdb;" horiz-adv-x="737" 
d="M570 1493h-102l-103 102l-102 -102h-102l204 205zM96 327v1038h136v-1089q0 -78 39 -122q38 -44 104 -44q61 0 96 44q34 43 34 122v1089h137v-1047q0 -88 -11 -137q-10 -47 -41 -90q-37 -54 -94 -80q-57 -28 -128 -28q-80 0 -145 38q-64 37 -97 104q-17 36 -23 79
q-7 42 -7 123z" />
    <glyph glyph-name="Ugrave" unicode="&#xd9;" horiz-adv-x="737" 
d="M314 1484l-204 205h102l205 -205h-103zM96 327v1038h136v-1089q0 -78 39 -122q38 -44 104 -44q61 0 96 44q34 43 34 122v1089h137v-1047q0 -88 -11 -137q-10 -47 -41 -90q-37 -54 -94 -80q-57 -28 -128 -28q-80 0 -145 38q-64 37 -97 104q-17 36 -23 79q-7 42 -7 123z
" />
    <glyph glyph-name="dotlessi" unicode="&#x131;" horiz-adv-x="328" 
d="M232 1092v-1092h-136v1092h136z" />
    <glyph glyph-name="circumflex" unicode="&#x2c6;" horiz-adv-x="683" 
d="M546 1493h-102l-103 102l-102 -102h-102l204 205z" />
    <glyph glyph-name="tilde" unicode="&#x2dc;" horiz-adv-x="748" 
d="M359 1551q-46 37 -70 37q-32 0 -55 -23q-22 -22 -22 -54h-75q0 43 21 77q19 34 54 55q35 20 77 20q27 0 51 -11q27 -15 53 -34q14 -9 25 -18q7 -6 17 -10q7 -4 24 -4q32 0 55 23q22 22 22 54h75q0 -42 -20 -77q-21 -35 -55 -54q-34 -21 -77 -21q-53 0 -100 40z" />
    <glyph glyph-name="macron" unicode="&#xaf;" horiz-adv-x="959" 
d="M479 964q-75 0 -140 -38q-66 -38 -103 -102q-38 -65 -38 -141q0 -75 38 -140q37 -66 103 -104q65 -38 140 -38q76 0 141 38q66 38 103 104q38 65 38 140q0 59 -22 110q-23 54 -59 90q-35 35 -91 59q-51 22 -110 22zM479 1100q83 0 162 -32q77 -33 134 -90t90 -134
q32 -79 32 -161t-32 -161q-33 -79 -91 -135q-58 -58 -135 -90q-78 -32 -160 -32q-81 0 -159 32q-75 31 -135 91q-61 59 -92 135q-32 78 -32 160t32 160q31 75 90 134q58 58 136 91q78 32 160 32z" />
    <glyph glyph-name="breve" unicode="&#x2d8;" 
d="M82 1351v-1337h655v1337h-655zM68 0v1365h683v-1365h-683z" />
    <glyph glyph-name="dotaccent" unicode="&#x2d9;" 
d="M82 1351v-1337h655v1337h-655zM68 0v1365h683v-1365h-683z" />
    <glyph glyph-name="ring" unicode="&#x2da;" horiz-adv-x="546" 
d="M273 1655q-28 0 -48 -20t-20 -48t20 -48t48 -20q29 0 48 19q20 20 20 49t-20 49q-19 19 -48 19zM273 1723q57 0 97 -39t40 -97q0 -57 -40 -97t-97 -40q-56 0 -96 40t-40 97q0 58 40 97q41 39 96 39z" />
    <glyph glyph-name="cedilla" unicode="&#xb8;" 
d="M82 1351v-1337h655v1337h-655zM68 0v1365h683v-1365h-683z" />
    <glyph glyph-name="hungarumlaut" unicode="&#x2ba;" 
d="M82 1351v-1337h655v1337h-655zM68 0v1365h683v-1365h-683z" />
    <glyph glyph-name="ogonek" unicode="&#x2db;" 
d="M82 1351v-1337h655v1337h-655zM68 0v1365h683v-1365h-683z" />
    <glyph glyph-name="caron" unicode="&#x2c7;" 
d="M82 1351v-1337h655v1337h-655zM68 0v1365h683v-1365h-683z" />
    </font>
</defs>
</svg>
